<?xml version="1.0" standalone="no"?>
<!DOCTYPE svg PUBLIC "-//W3C//DTD SVG 20010904//EN"
 "http://www.w3.org/TR/2001/REC-SVG-20010904/DTD/svg10.dtd">
<svg version="1.0" xmlns="http://www.w3.org/2000/svg"
 width="300.000000pt" height="72.000000pt" viewBox="0 0 300.000000 72.000000"
 preserveAspectRatio="xMidYMid meet">

<g transform="translate(0.000000,72.000000) scale(0.100000,-0.100000)"
fill="#000000" stroke="none">
<path d="M910 707 c-73 -25 -89 -124 -29 -179 22 -22 39 -28 72 -28 68 0 109
40 72 70 -13 10 -19 10 -33 -4 -24 -21 -45 -20 -65 2 -45 49 0 108 62 82 47
-19 70 10 34 42 -26 23 -73 29 -113 15z"/>
<path d="M287 693 c-18 -20 -21 -42 -19 -131 l2 -63 88 3 87 3 0 81 c0 105
-14 124 -90 124 -37 0 -57 -5 -68 -17z"/>
<path d="M1514 688 c-4 -13 -14 -29 -23 -35 -15 -12 -14 -14 2 -27 9 -7 17
-27 17 -44 0 -58 16 -82 54 -82 18 0 39 7 46 15 14 17 7 30 -18 30 -12 0 -18
10 -20 37 -3 32 0 37 20 40 29 4 30 32 1 36 -14 2 -23 11 -25 25 -4 32 -44 35
-54 5z"/>
<path d="M2265 673 c-81 -42 -123 -118 -110 -200 15 -99 64 -160 255 -320 47
-39 101 -87 119 -107 19 -20 40 -36 45 -36 6 0 23 16 39 35 15 19 76 76 135
128 100 86 108 95 100 118 -5 13 -8 36 -5 51 3 26 1 27 -41 30 -52 3 -74 26
-53 52 10 12 33 16 92 16 l79 0 0 -57 c0 -31 3 -53 7 -49 4 4 7 28 8 54 0 41
3 47 22 50 48 7 37 123 -17 186 -41 46 -87 66 -154 66 -75 0 -113 -18 -163
-74 -22 -25 -47 -46 -54 -46 -8 1 -26 18 -40 39 -36 52 -99 81 -175 81 -34 -1
-72 -8 -89 -17z m643 -135 c7 -7 12 -27 12 -46 0 -32 -1 -33 -37 -30 -30 2
-39 7 -41 25 -7 48 36 81 66 51z"/>
<path d="M1134 663 c-35 -7 -59 -40 -59 -85 0 -50 30 -78 85 -78 51 0 70 8 70
30 0 15 -8 18 -46 17 -30 -1 -48 3 -51 11 -3 9 11 12 51 12 53 0 56 1 56 25 0
24 -31 65 -49 65 -5 0 -15 2 -23 4 -7 2 -23 1 -34 -1z m44 -45 c20 -20 14 -28
-23 -28 -33 0 -35 2 -25 20 12 23 30 26 48 8z"/>
<path d="M1366 655 c-15 -8 -28 -10 -31 -4 -4 5 -17 9 -31 9 -25 0 -25 -1 -22
-77 3 -76 4 -78 28 -78 23 0 25 4 28 53 2 28 7 53 13 54 31 5 34 0 39 -52 5
-51 7 -55 33 -58 l27 -3 0 69 c0 44 -5 73 -12 79 -25 19 -46 21 -72 8z"/>
<path d="M1732 654 c-13 -9 -23 -11 -27 -4 -3 5 -15 10 -26 10 -17 0 -19 -7
-19 -80 0 -79 0 -80 25 -80 26 0 31 12 37 75 3 25 7 30 28 30 41 0 55 36 22
54 -14 7 -25 6 -40 -5z"/>
<path d="M1875 659 c-39 -11 -55 -34 -55 -81 0 -53 27 -78 85 -78 58 0 85 25
85 78 0 21 -6 46 -12 55 -18 23 -67 36 -103 26z m63 -70 c4 -31 -20 -53 -48
-44 -14 4 -20 15 -20 34 0 35 8 43 40 39 19 -2 26 -10 28 -29z"/>
<path d="M33 426 c-23 -20 -28 -32 -27 -67 2 -68 24 -79 150 -79 l104 0 0 -87
c0 -102 13 -159 40 -173 32 -17 98 -12 119 9 28 28 32 65 29 251 l-3 165 -192
3 c-190 2 -192 2 -220 -22z"/>
<path d="M497 443 c-12 -11 -8 -161 4 -169 7 -4 46 -6 88 -5 67 1 79 5 99 27
40 45 24 124 -29 143 -35 12 -151 15 -162 4z"/>
<path d="M1176 418 c-22 -30 -20 -38 7 -38 33 0 62 23 54 44 -9 23 -43 20 -61
-6z"/>
<path d="M1544 426 c-10 -26 4 -48 28 -44 17 2 23 10 23 28 0 18 -6 26 -23 28
-13 2 -25 -3 -28 -12z"/>
<path d="M1430 383 c0 -37 -3 -44 -12 -35 -19 19 -66 14 -88 -8 -31 -31 -28
-102 6 -129 32 -25 57 -27 78 -5 9 8 16 11 16 5 0 -6 14 -11 30 -11 l30 0 0
103 c0 106 -7 127 -42 127 -15 0 -18 -8 -18 -47z m-12 -75 c32 -32 0 -84 -37
-61 -22 14 -25 38 -6 57 20 19 27 20 43 4z"/>
<path d="M847 403 c-4 -3 -7 -51 -7 -105 l0 -99 28 3 c25 3 27 6 31 58 l3 55
12 -35 c10 -27 18 -35 37 -35 18 0 25 8 33 33 14 49 26 38 26 -23 0 -52 1 -55
25 -55 l26 0 -3 103 -3 102 -28 3 c-25 3 -30 -2 -51 -50 l-24 -53 -22 53 c-19
44 -27 52 -50 52 -15 0 -30 -3 -33 -7z"/>
<path d="M1130 335 c-29 -30 -31 -87 -5 -115 37 -41 135 -33 135 10 0 22 -19
27 -37 9 -13 -13 -63 -4 -63 11 0 6 25 10 55 10 54 0 55 0 55 30 0 66 -92 96
-140 45z m88 -32 c2 -9 -7 -13 -27 -13 -30 0 -39 9 -24 24 11 10 46 3 51 -11z"/>
<path d="M1547 354 c-4 -4 -7 -40 -7 -81 l0 -73 30 0 31 0 -3 78 c-3 69 -5 77
-23 80 -12 2 -24 0 -28 -4z"/>
<path d="M1665 335 c-61 -60 -1 -159 84 -140 38 8 57 37 37 55 -11 8 -19 8
-35 -2 -40 -25 -79 23 -46 56 20 19 29 20 47 3 17 -18 38 -10 38 13 0 44 -86
54 -125 15z"/>
<path d="M1856 339 c-21 -16 -26 -29 -26 -63 0 -57 26 -81 87 -81 55 0 83 28
83 85 0 47 -36 80 -85 80 -18 0 -44 -9 -59 -21z m84 -33 c20 -25 8 -61 -22
-64 -36 -4 -53 26 -32 56 18 25 37 28 54 8z"/>
<path d="M944 78 c-4 -6 2 -18 13 -27 11 -9 22 -23 26 -31 4 -12 6 -11 6 2 1
10 -8 22 -19 28 -25 13 -26 27 -2 33 15 4 15 5 0 6 -9 0 -20 -4 -24 -11z"/>
<path d="M1066 74 c-4 -9 -4 -19 -1 -22 3 -3 5 0 5 7 0 7 4 9 10 6 6 -3 7 1 4
9 -8 20 -10 20 -18 0z"/>
<path d="M1178 83 c7 -3 16 -2 19 1 4 3 -2 6 -13 5 -11 0 -14 -3 -6 -6z"/>
<path d="M1283 50 c0 -25 2 -35 4 -22 2 12 2 32 0 45 -2 12 -4 2 -4 -23z"/>
<path d="M1351 48 c1 -24 3 -35 6 -25 5 19 14 22 29 7 6 -6 10 -3 10 9 0 12
-6 17 -18 13 -12 -3 -18 1 -18 13 0 12 6 16 20 12 11 -3 18 -1 14 4 -3 5 -14
9 -25 9 -16 0 -19 -7 -18 -42z"/>
<path d="M1487 83 c-4 -3 -7 -11 -7 -17 0 -6 5 -5 12 2 6 6 9 14 7 17 -3 3 -9
2 -12 -2z"/>
<path d="M1582 48 c1 -38 2 -39 5 -10 3 22 8 30 16 25 7 -4 6 0 -2 10 -19 24
-21 22 -19 -25z"/>
<path d="M1722 78 c-13 -13 -16 -54 -4 -61 4 -3 7 9 7 26 0 24 5 32 25 38 21
6 22 7 5 8 -12 1 -26 -4 -33 -11z"/>
<path d="M1857 76 c-4 -10 -3 -15 3 -11 6 3 10 1 10 -6 0 -7 3 -10 6 -6 3 3 2
13 -4 22 -8 16 -9 16 -15 1z"/>
<path d="M1070 40 l-25 -8 28 -1 c15 -1 27 4 27 9 0 6 -1 10 -2 9 -2 -1 -14
-5 -28 -9z"/>
<path d="M1465 32 c-3 -8 -3 -17 0 -20 3 -3 5 0 5 7 0 9 9 12 25 9 28 -6 25 7
-4 15 -12 3 -22 -1 -26 -11z"/>
<path d="M1620 30 c6 -11 13 -20 16 -20 2 0 0 9 -6 20 -6 11 -13 20 -16 20 -2
0 0 -9 6 -20z"/>
<path d="M1840 39 c0 -5 8 -9 18 -9 10 0 24 -6 31 -12 10 -11 11 -10 6 3 -7
18 -55 33 -55 18z"/>
</g>
</svg>
